<?xml version="1.0" encoding="utf-8"?>
<COLLADA xmlns="http://www.collada.org/2005/11/COLLADASchema" version="1.4.1" xmlns:xsi="http://www.w3.org/2001/XMLSchema-instance">
  <asset>
    <contributor>
      <author>Blender User</author>
      <authoring_tool>Blender 3.0.1</authoring_tool>
    </contributor>
    <created>2025-01-21T12:28:31</created>
    <modified>2025-01-21T12:28:31</modified>
    <unit name="meter" meter="1"/>
    <up_axis>Z_UP</up_axis>
  </asset>
  <library_cameras>
    <camera id="Camera_002-camera" name="Camera.002">
      <optics>
        <technique_common>
          <perspective>
            <xfov sid="xfov">39.59775</xfov>
            <aspect_ratio>1.777778</aspect_ratio>
            <znear sid="znear">0.1</znear>
            <zfar sid="zfar">100</zfar>
          </perspective>
        </technique_common>
      </optics>
      <extra>
        <technique profile="blender">
          <shiftx sid="shiftx" type="float">0</shiftx>
          <shifty sid="shifty" type="float">0</shifty>
          <dof_distance sid="dof_distance" type="float">10</dof_distance>
        </technique>
      </extra>
    </camera>
    <camera id="Camera_001-camera" name="Camera.001">
      <optics>
        <technique_common>
          <perspective>
            <xfov sid="xfov">39.59775</xfov>
            <aspect_ratio>1.777778</aspect_ratio>
            <znear sid="znear">0.1</znear>
            <zfar sid="zfar">100</zfar>
          </perspective>
        </technique_common>
      </optics>
      <extra>
        <technique profile="blender">
          <shiftx sid="shiftx" type="float">0</shiftx>
          <shifty sid="shifty" type="float">0</shifty>
          <dof_distance sid="dof_distance" type="float">10</dof_distance>
        </technique>
      </extra>
    </camera>
    <camera id="Camera-camera" name="Camera">
      <optics>
        <technique_common>
          <perspective>
            <xfov sid="xfov">39.59775</xfov>
            <aspect_ratio>1.777778</aspect_ratio>
            <znear sid="znear">0.1</znear>
            <zfar sid="zfar">100</zfar>
          </perspective>
        </technique_common>
      </optics>
      <extra>
        <technique profile="blender">
          <shiftx sid="shiftx" type="float">0</shiftx>
          <shifty sid="shifty" type="float">0</shifty>
          <dof_distance sid="dof_distance" type="float">10</dof_distance>
        </technique>
      </extra>
    </camera>
  </library_cameras>
  <library_lights>
    <light id="Light_002-light" name="Light.002">
      <technique_common>
        <point>
          <color sid="color">1000 1000 1000</color>
          <constant_attenuation>1</constant_attenuation>
          <linear_attenuation>0</linear_attenuation>
          <quadratic_attenuation>0.00111109</quadratic_attenuation>
        </point>
      </technique_common>
      <extra>
        <technique profile="blender">
          <type sid="type" type="int">0</type>
          <flag sid="flag" type="int">0</flag>
          <mode sid="mode" type="int">1</mode>
          <gamma sid="blender_gamma" type="float">1</gamma>
          <red sid="red" type="float">1</red>
          <green sid="green" type="float">1</green>
          <blue sid="blue" type="float">1</blue>
          <shadow_r sid="blender_shadow_r" type="float">0</shadow_r>
          <shadow_g sid="blender_shadow_g" type="float">0</shadow_g>
          <shadow_b sid="blender_shadow_b" type="float">0</shadow_b>
          <energy sid="blender_energy" type="float">1000</energy>
          <dist sid="blender_dist" type="float">29.99998</dist>
          <spotsize sid="spotsize" type="float">75</spotsize>
          <spotblend sid="spotblend" type="float">0.15</spotblend>
          <att1 sid="att1" type="float">0</att1>
          <att2 sid="att2" type="float">1</att2>
          <falloff_type sid="falloff_type" type="int">2</falloff_type>
          <clipsta sid="clipsta" type="float">0.04999995</clipsta>
          <clipend sid="clipend" type="float">30.002</clipend>
          <bias sid="bias" type="float">1</bias>
          <soft sid="soft" type="float">3</soft>
          <bufsize sid="bufsize" type="int">2880</bufsize>
          <samp sid="samp" type="int">3</samp>
          <buffers sid="buffers" type="int">1</buffers>
          <area_shape sid="area_shape" type="int">1</area_shape>
          <area_size sid="area_size" type="float">0.1</area_size>
          <area_sizey sid="area_sizey" type="float">0.1</area_sizey>
          <area_sizez sid="area_sizez" type="float">1</area_sizez>
        </technique>
      </extra>
    </light>
    <light id="Light_001-light" name="Light.001">
      <technique_common>
        <point>
          <color sid="color">1000 1000 1000</color>
          <constant_attenuation>1</constant_attenuation>
          <linear_attenuation>0</linear_attenuation>
          <quadratic_attenuation>0.00111109</quadratic_attenuation>
        </point>
      </technique_common>
      <extra>
        <technique profile="blender">
          <type sid="type" type="int">0</type>
          <flag sid="flag" type="int">0</flag>
          <mode sid="mode" type="int">1</mode>
          <gamma sid="blender_gamma" type="float">1</gamma>
          <red sid="red" type="float">1</red>
          <green sid="green" type="float">1</green>
          <blue sid="blue" type="float">1</blue>
          <shadow_r sid="blender_shadow_r" type="float">0</shadow_r>
          <shadow_g sid="blender_shadow_g" type="float">0</shadow_g>
          <shadow_b sid="blender_shadow_b" type="float">0</shadow_b>
          <energy sid="blender_energy" type="float">1000</energy>
          <dist sid="blender_dist" type="float">29.99998</dist>
          <spotsize sid="spotsize" type="float">75</spotsize>
          <spotblend sid="spotblend" type="float">0.15</spotblend>
          <att1 sid="att1" type="float">0</att1>
          <att2 sid="att2" type="float">1</att2>
          <falloff_type sid="falloff_type" type="int">2</falloff_type>
          <clipsta sid="clipsta" type="float">0.04999995</clipsta>
          <clipend sid="clipend" type="float">30.002</clipend>
          <bias sid="bias" type="float">1</bias>
          <soft sid="soft" type="float">3</soft>
          <bufsize sid="bufsize" type="int">2880</bufsize>
          <samp sid="samp" type="int">3</samp>
          <buffers sid="buffers" type="int">1</buffers>
          <area_shape sid="area_shape" type="int">1</area_shape>
          <area_size sid="area_size" type="float">0.1</area_size>
          <area_sizey sid="area_sizey" type="float">0.1</area_sizey>
          <area_sizez sid="area_sizez" type="float">1</area_sizez>
        </technique>
      </extra>
    </light>
    <light id="Light-light" name="Light">
      <technique_common>
        <point>
          <color sid="color">1000 1000 1000</color>
          <constant_attenuation>1</constant_attenuation>
          <linear_attenuation>0</linear_attenuation>
          <quadratic_attenuation>0.00111109</quadratic_attenuation>
        </point>
      </technique_common>
      <extra>
        <technique profile="blender">
          <type sid="type" type="int">0</type>
          <flag sid="flag" type="int">0</flag>
          <mode sid="mode" type="int">1</mode>
          <gamma sid="blender_gamma" type="float">1</gamma>
          <red sid="red" type="float">1</red>
          <green sid="green" type="float">1</green>
          <blue sid="blue" type="float">1</blue>
          <shadow_r sid="blender_shadow_r" type="float">0</shadow_r>
          <shadow_g sid="blender_shadow_g" type="float">0</shadow_g>
          <shadow_b sid="blender_shadow_b" type="float">0</shadow_b>
          <energy sid="blender_energy" type="float">1000</energy>
          <dist sid="blender_dist" type="float">29.99998</dist>
          <spotsize sid="spotsize" type="float">75</spotsize>
          <spotblend sid="spotblend" type="float">0.15</spotblend>
          <att1 sid="att1" type="float">0</att1>
          <att2 sid="att2" type="float">1</att2>
          <falloff_type sid="falloff_type" type="int">2</falloff_type>
          <clipsta sid="clipsta" type="float">0.04999995</clipsta>
          <clipend sid="clipend" type="float">30.002</clipend>
          <bias sid="bias" type="float">1</bias>
          <soft sid="soft" type="float">3</soft>
          <bufsize sid="bufsize" type="int">2880</bufsize>
          <samp sid="samp" type="int">3</samp>
          <buffers sid="buffers" type="int">1</buffers>
          <area_shape sid="area_shape" type="int">1</area_shape>
          <area_size sid="area_size" type="float">0.1</area_size>
          <area_sizey sid="area_sizey" type="float">0.1</area_sizey>
          <area_sizez sid="area_sizez" type="float">1</area_sizez>
        </technique>
      </extra>
    </light>
  </library_lights>
  <library_effects>
    <effect id="Material_003-effect">
      <profile_COMMON>
        <technique sid="common">
          <lambert>
            <emission>
              <color sid="emission">0 0 0 1</color>
            </emission>
            <diffuse>
              <color sid="diffuse">0.8 0.2031534 0.01491903 1</color>
            </diffuse>
            <index_of_refraction>
              <float sid="ior">1.45</float>
            </index_of_refraction>
          </lambert>
        </technique>
      </profile_COMMON>
    </effect>
    <effect id="Material_004-effect">
      <profile_COMMON>
        <technique sid="common">
          <lambert>
            <emission>
              <color sid="emission">0 0 0 1</color>
            </emission>
            <diffuse>
              <color sid="diffuse">0.8 0.203 0.015 1</color>
            </diffuse>
            <index_of_refraction>
              <float sid="ior">1.45</float>
            </index_of_refraction>
          </lambert>
        </technique>
      </profile_COMMON>
    </effect>
    <effect id="Material_002-effect">
      <profile_COMMON>
        <technique sid="common">
          <lambert>
            <emission>
              <color sid="emission">0 0 0 1</color>
            </emission>
            <diffuse>
              <color sid="diffuse">0 0 0 1</color>
            </diffuse>
            <index_of_refraction>
              <float sid="ior">1.45</float>
            </index_of_refraction>
          </lambert>
        </technique>
      </profile_COMMON>
    </effect>
  </library_effects>
  <library_images/>
  <library_materials>
    <material id="Material_003-material" name="Material.003">
      <instance_effect url="#Material_003-effect"/>
    </material>
    <material id="Material_004-material" name="Material.004">
      <instance_effect url="#Material_004-effect"/>
    </material>
    <material id="Material_002-material" name="Material.002">
      <instance_effect url="#Material_002-effect"/>
    </material>
  </library_materials>
  <library_geometries>
    <geometry id="Cylinder_002-mesh" name="Cylinder.002">
      <mesh>
        <source id="Cylinder_002-mesh-positions">
          <float_array id="Cylinder_002-mesh-positions-array" count="576">0 1 -1 0 1 1 0.1950903 0.9807853 -1 0.1950903 0.9807853 1 0.3826835 0.9238795 -1 0.3826835 0.9238795 1 0.5555703 0.8314696 -1 0.5555703 0.8314696 1 0.7071068 0.7071068 -1 0.7071068 0.7071068 1 0.8314696 0.5555703 -1 0.8314696 0.5555703 1 0.9238795 0.3826834 -1 0.9238795 0.3826834 1 0.9807853 0.1950903 -1 0.9807853 0.1950903 1 1 0 -1 1 0 1 0.9807853 -0.1950903 -1 0.9807853 -0.1950903 1 0.9238796 -0.3826834 -1 0.9238796 -0.3826834 1 0.8314697 -0.5555702 -1 0.8314697 -0.5555702 1 0.7071068 -0.7071068 -1 0.7071068 -0.7071068 1 0.5555702 -0.8314697 -1 0.5555702 -0.8314697 1 0.3826835 -0.9238795 -1 0.3826835 -0.9238795 1 0.1950903 -0.9807853 -1 0.1950903 -0.9807853 1 0 -1 -1 0 -1 1 -0.1950902 -0.9807853 -1 -0.1950902 -0.9807853 1 -0.3826834 -0.9238795 -1 -0.3826834 -0.9238795 1 -0.5555703 -0.8314695 -1 -0.5555703 -0.8314695 1 -0.7071067 -0.7071068 -1 -0.7071067 -0.7071068 1 -0.8314695 -0.5555704 -1 -0.8314695 -0.5555704 1 -0.9238795 -0.3826836 -1 -0.9238795 -0.3826836 1 -0.9807853 -0.1950904 -1 -0.9807853 -0.1950904 1 -1 0 -1 -1 0 1 -0.9807853 0.1950904 -1 -0.9807853 0.1950904 1 -0.9238795 0.3826836 -1 -0.9238795 0.3826836 1 -0.8314697 0.5555701 -1 -0.8314697 0.5555701 1 -0.7071069 0.7071067 -1 -0.7071069 0.7071067 1 -0.5555703 0.8314696 -1 -0.5555703 0.8314696 1 -0.3826834 0.9238796 -1 -0.3826834 0.9238796 1 -0.1950902 0.9807853 -1 -0.1950902 0.9807853 1 -75 1 -1 -75 1 1 -74.80491 0.9807853 -1 -74.80491 0.9807853 1 -74.61732 0.9238795 -1 -74.61732 0.9238795 1 -74.44443 0.8314696 -1 -74.44443 0.8314696 1 -74.2929 0.7071068 -1 -74.2929 0.7071068 1 -74.16854 0.5555703 -1 -74.16854 0.5555703 1 -74.07612 0.3826834 -1 -74.07612 0.3826834 1 -74.01922 0.1950903 -1 -74.01922 0.1950903 1 -74 0 -1 -74 0 1 -74.01922 -0.1950903 -1 -74.01922 -0.1950903 1 -74.07612 -0.3826834 -1 -74.07612 -0.3826834 1 -74.16854 -0.5555702 -1 -74.16854 -0.5555702 1 -74.2929 -0.7071068 -1 -74.2929 -0.7071068 1 -74.44443 -0.8314697 -1 -74.44443 -0.8314697 1 -74.61732 -0.9238795 -1 -74.61732 -0.9238795 1 -74.80491 -0.9807853 -1 -74.80491 -0.9807853 1 -75 -1 -1 -75 -1 1 -75.19509 -0.9807853 -1 -75.19509 -0.9807853 1 -75.38269 -0.9238795 -1 -75.38269 -0.9238795 1 -75.55558 -0.8314695 -1 -75.55558 -0.8314695 1 -75.70711 -0.7071068 -1 -75.70711 -0.7071068 1 -75.83147 -0.5555704 -1 -75.83147 -0.5555704 1 -75.92388 -0.3826836 -1 -75.92388 -0.3826836 1 -75.98078 -0.1950904 -1 -75.98078 -0.1950904 1 -76 0 -1 -76 0 1 -75.98078 0.1950904 -1 -75.98078 0.1950904 1 -75.92388 0.3826836 -1 -75.92388 0.3826836 1 -75.83147 0.5555701 -1 -75.83147 0.5555701 1 -75.70711 0.7071067 -1 -75.70711 0.7071067 1 -75.55558 0.8314696 -1 -75.55558 0.8314696 1 -75.38269 0.9238796 -1 -75.38269 0.9238796 1 -75.19509 0.9807853 -1 -75.19509 0.9807853 1 -75 -1.75839e-6 1.04 0 1.51997e-6 1.04 -75 0.1950885 1.039232 0 0.1950918 1.039231 -75 0.3826817 1.036955 0 0.382685 1.036955 -75 0.5555685 1.033259 0 0.5555719 1.033259 -75 0.7071051 1.028284 0 0.7071084 1.028284 -75 0.8314679 1.022223 0 0.8314712 1.022223 -75 0.9238778 1.015307 0 0.9238811 1.015307 -75 0.9807837 1.007804 0 0.980787 1.007804 -75 0.9999983 1 0 1.000002 1 -75 0.9807837 0.9921965 0 0.980787 0.9921963 -75 0.923878 0.9846928 0 0.9238814 0.9846926 -75 0.8314681 0.9777773 0 0.8314715 0.9777771 -75 0.7071052 0.9717158 0 0.7071086 0.9717157 -75 0.5555686 0.9667413 0 0.555572 0.9667412 -75 0.382682 0.9630449 0 0.3826853 0.9630448 -75 0.1950888 0.9607686 0 0.195092 0.9607685 -75 -1.51997e-6 0.96 0 1.75839e-6 0.9599999 -75 -0.1950917 0.9607686 0 -0.1950884 0.9607685 -75 -0.3826849 0.9630449 0 -0.3826816 0.9630448 -75 -0.5555719 0.9667413 0 -0.5555685 0.9667412 -75 -0.7071083 0.9717158 0 -0.707105 0.9717157 -75 -0.8314712 0.9777773 0 -0.8314678 0.9777771 -75 -0.9238811 0.9846927 0 -0.9238778 0.9846926 -75 -0.980787 0.9921965 0 -0.9807837 0.9921963 -75 -1.000002 1 0 -0.9999983 1 -75 -0.980787 1.007804 0 -0.9807837 1.007804 -75 -0.9238812 1.015307 0 -0.9238779 1.015307 -75 -0.8314715 1.022223 0 -0.8314681 1.022223 -75 -0.7071086 1.028284 0 -0.7071053 1.028284 -75 -0.5555721 1.033259 0 -0.5555688 1.033259 -75 -0.3826851 1.036955 0 -0.3826819 1.036955 -75 -0.1950919 1.039232 0 -0.1950886 1.039231</float_array>
          <technique_common>
            <accessor source="#Cylinder_002-mesh-positions-array" count="192" stride="3">
              <param name="X" type="float"/>
              <param name="Y" type="float"/>
              <param name="Z" type="float"/>
            </accessor>
          </technique_common>
        </source>
        <source id="Cylinder_002-mesh-normals">
          <float_array id="Cylinder_002-mesh-normals-array" count="564">0.09801697 0.9951848 0 0.2902848 0.9569403 0 0.4713967 0.8819213 0 0.634393 0.7730107 0 0.7730108 0.634393 0 0.8819214 0.4713968 0 0.9569404 0.2902847 0 0.9951848 0.09801727 0 0.9951848 -0.09801667 0 0.9569406 -0.2902842 0 0.8819215 -0.4713965 0 0.7730107 -0.634393 0 0.6343931 -0.7730107 0 0.4713965 -0.8819214 0 0.2902848 -0.9569404 0 0.09801697 -0.9951848 0 -0.09801703 -0.9951848 0 -0.2902849 -0.9569404 0 -0.4713968 -0.8819214 0 -0.6343934 -0.7730104 0 -0.7730103 -0.6343937 0 -0.8819212 -0.4713969 0 -0.9569405 -0.2902846 0 -0.9951847 -0.09801721 0 -0.9951848 0.09801661 0 -0.9569403 0.2902851 0 -0.8819212 0.4713971 0 -0.7730106 0.6343932 0 -0.6343934 0.7730104 0 -0.4713969 0.8819212 0 0 0 1 -0.2902842 0.9569405 0 -0.09801703 0.9951848 0 0 0 -1 0.2902848 0.9569404 0 0.6343933 0.7730104 0 0.7730105 0.6343934 0 0.8819216 0.4713962 0 0.9569402 0.2902853 0 0.9951848 0.09801667 0 0.9951848 -0.09801727 0 0.9569404 -0.2902847 0 0.8819212 -0.471397 0 0.7730104 -0.6343934 0 0.6343934 -0.7730104 0 0.2902848 -0.9569403 0 -0.2902848 -0.9569404 0 -0.6343931 -0.7730106 0 -0.9569403 -0.2902851 0 -0.9951848 -0.09801661 0 -0.9951847 0.09801721 0 -0.9569405 0.2902846 0 -0.8819214 0.4713966 0 1.02308e-6 0 1 -0.2902843 0.9569405 0 0 0 -1 3.97513e-6 0 -1 3.97512e-6 0 -1 3.97512e-6 0 -1 -1.02308e-6 0 -1 2.87797e-7 0 -1 0 0 -1 0.09801274 0.9951852 0 0.2902871 0.9569396 0 0.4713744 0.8819333 0 0.6343969 0.7730076 0 0.7730197 0.6343821 0 0.8819272 0.4713858 0 0.9569485 0.290258 0 0.9951868 0.09799742 0 0.9951792 -0.09807449 0 0.9569485 -0.290258 0 0.8818947 -0.4714466 0 0.7730199 -0.6343818 0 0.6343973 -0.7730072 0 0.4714062 -0.8819162 0 0.2902871 -0.9569396 0 0.09802031 -0.9951845 0 -0.09801274 -0.9951852 0 -0.2902871 -0.9569396 0 -0.4713746 -0.8819332 0 -0.6343967 -0.7730078 0 -0.7730194 -0.6343824 0 -0.8819271 -0.471386 0 -0.9569485 -0.2902578 0 -0.9951867 -0.09799736 0 -0.9951792 0.09807443 0 -0.9569485 0.2902578 0 -0.8818943 0.4714472 0 -0.7730198 0.634382 0 -0.6343973 0.7730072 0 -0.4714072 0.8819158 0 -0.2902866 0.9569398 0 -0.09802031 0.9951845 0 0 0 -1 0.09802031 0.9951845 0 0.4714067 0.881916 0 0.8818948 0.4714464 0 0.9951792 0.09807449 0 0.9951868 -0.09799742 0 0.881927 -0.4713861 0 0.4713739 -0.8819336 0 0.09801274 -0.9951852 0 -0.09802031 -0.9951845 0 -0.4714069 -0.8819158 0 -0.8818947 -0.4714465 0 -0.9951792 -0.09807443 0 -0.9951867 0.09799736 0 -0.8819267 0.4713866 0 -0.4713749 0.8819331 0 1.02308e-6 0 1 -0.09801274 0.9951852 0 3.97411e-6 0 -1 3.9741e-6 0 -1 3.97411e-6 0 -1 -1.02308e-6 0 -1 2.87798e-7 0 -1 0 0 -1 0 0.00393933 0.9999923 0 0.0121333 0.9999265 0 0.02137511 0.9997715 0 0.03281003 0.9994616 0 0.04868215 0.9988144 0 0.07462584 0.9972116 0 0.1307306 0.991418 0 0.3762775 0.9265071 0 0.3762825 -0.9265051 0 0.1307301 -0.991418 0 0.07462632 -0.9972116 0 0.04868203 -0.9988144 0 0.03280967 -0.9994617 0 0.02137547 -0.9997716 0 0.012133 -0.9999264 0 0.003939688 -0.9999923 0 -0.003939688 -0.9999923 0 -0.012133 -0.9999264 0 -0.02137541 -0.9997715 0 -0.03280967 -0.9994617 0 -0.04868209 -0.9988144 0 -0.07462579 -0.9972117 0 -0.1307306 -0.991418 0 -0.3762825 -0.9265051 0 -0.3762775 0.9265071 0 -0.1307311 0.9914179 0 -0.07462584 0.9972116 0 -0.04868215 0.9988144 0 -0.03280925 0.9994617 0 -0.02137577 0.9997715 1 0 0 0 -0.0121333 0.9999264 0 -0.00393939 0.9999923 -1 -5.96047e-6 0 0 0.003939986 0.9999923 0 0.0121327 0.9999265 0 0.02137577 0.9997715 0 0.03280925 0.9994617 0 0.04868215 0.9988144 0 0.07462584 0.9972116 0 0.1307306 0.991418 0 0.37628 0.9265061 0 0.37628 -0.9265061 0 0.1307306 -0.991418 0 0.07462656 -0.9972116 0 0.04868215 -0.9988144 0 0.03280967 -0.9994617 0 0.02137547 -0.9997715 0 0.012133 -0.9999265 0 0.003939688 -0.9999923 0 -0.003939688 -0.9999923 0 -0.012133 -0.9999264 0 -0.02137541 -0.9997715 0 -0.03280967 -0.9994617 0 -0.04868215 -0.9988144 0 -0.07462584 -0.9972116 0 -0.1307306 -0.991418 0 -0.37628 -0.9265061 0 -0.37628 0.9265061 0 -0.1307311 0.9914179 0 -0.0746259 0.9972117 0 -0.04868209 0.9988144 0 -0.03280925 0.9994617 0 -0.02137577 0.9997715 0 -0.0121327 0.9999264 0 -0.003939986 0.9999923 -1 0 0 -1 1.0231e-4 0 -1 1.43897e-5 0 -1 -2.98023e-6 0</float_array>
          <technique_common>
            <accessor source="#Cylinder_002-mesh-normals-array" count="188" stride="3">
              <param name="X" type="float"/>
              <param name="Y" type="float"/>
              <param name="Z" type="float"/>
            </accessor>
          </technique_common>
        </source>
        <source id="Cylinder_002-mesh-map-0">
          <float_array id="Cylinder_002-mesh-map-0-array" count="2232">1 1 0.96875 0.5 1 0.5 0.96875 1 0.9375 0.5 0.96875 0.5 0.9375 1 0.90625 0.5 0.9375 0.5 0.90625 1 0.8750001 0.5 0.90625 0.5 0.8750001 1 0.84375 0.5 0.8750001 0.5 0.84375 1 0.8125 0.5 0.84375 0.5 0.8125 1 0.78125 0.5 0.8125 0.5 0.78125 1 0.75 0.5 0.78125 0.5 0.75 1 0.71875 0.5 0.75 0.5 0.71875 1 0.6875 0.5 0.71875 0.5 0.6875 1 0.65625 0.5 0.6875 0.5 0.65625 1 0.625 0.5 0.65625 0.5 0.625 1 0.59375 0.5 0.625 0.5 0.59375 1 0.5625 0.5 0.59375 0.5 0.5625 1 0.53125 0.5 0.5625 0.5 0.53125 1 0.5 0.5 0.53125 0.5 0.5 1 0.46875 0.5 0.5 0.5 0.46875 1 0.4375 0.5 0.46875 0.5 0.4375 1 0.40625 0.5 0.4375 0.5 0.40625 1 0.375 0.5 0.40625 0.5 0.375 1 0.34375 0.5 0.375 0.5 0.34375 1 0.3125 0.5 0.34375 0.5 0.3125 1 0.28125 0.5 0.3125 0.5 0.28125 1 0.25 0.5 0.28125 0.5 0.25 1 0.21875 0.5 0.25 0.5 0.21875 1 0.1875 0.5 0.21875 0.5 0.1875 1 0.15625 0.5 0.1875 0.5 0.15625 1 0.125 0.5 0.15625 0.5 0.125 1 0.09375 0.5 0.125 0.5 0.09375 1 0.0625 0.5 0.09375 0.5 0.02826893 0.341844 0.1581559 0.02826887 0.4717311 0.1581559 0.0625 1 0.03125 0.5 0.0625 0.5 0.03125 1 0 0.5 0.03125 0.5 0.9853885 0.2968217 0.7968217 0.01461148 0.5146116 0.2031783 1 1 0.96875 1 0.96875 0.5 0.96875 1 0.9375 1 0.9375 0.5 0.9375 1 0.90625 1 0.90625 0.5 0.90625 1 0.8750001 1 0.8750001 0.5 0.8750001 1 0.84375 1 0.84375 0.5 0.84375 1 0.8125 1 0.8125 0.5 0.8125 1 0.78125 1 0.78125 0.5 0.78125 1 0.75 1 0.75 0.5 0.75 1 0.71875 1 0.71875 0.5 0.71875 1 0.6875 1 0.6875 0.5 0.6875 1 0.65625 1 0.65625 0.5 0.65625 1 0.625 1 0.625 0.5 0.625 1 0.59375 1 0.59375 0.5 0.59375 1 0.5625 1 0.5625 0.5 0.5625 1 0.53125 1 0.53125 0.5 0.53125 1 0.5 1 0.5 0.5 0.5 1 0.46875 1 0.46875 0.5 0.46875 1 0.4375 1 0.4375 0.5 0.4375 1 0.40625 1 0.40625 0.5 0.40625 1 0.375 1 0.375 0.5 0.375 1 0.34375 1 0.34375 0.5 0.34375 1 0.3125 1 0.3125 0.5 0.3125 1 0.28125 1 0.28125 0.5 0.28125 1 0.25 1 0.25 0.5 0.25 1 0.21875 1 0.21875 0.5 0.21875 1 0.1875 1 0.1875 0.5 0.1875 1 0.15625 1 0.15625 0.5 0.15625 1 0.125 1 0.125 0.5 0.125 1 0.09375 1 0.09375 0.5 0.09375 1 0.0625 1 0.0625 0.5 0.341844 0.4717311 0.2968217 0.4853885 0.1581559 0.4717311 0.2968217 0.4853885 0.25 0.49 0.1581559 0.4717311 0.25 0.49 0.2031783 0.4853885 0.1581559 0.4717311 0.1581559 0.4717311 0.116663 0.4495527 0.08029431 0.4197056 0.08029431 0.4197056 0.0504471 0.3833368 0.1581559 0.4717311 0.0504471 0.3833368 0.02826893 0.341844 0.1581559 0.4717311 0.02826893 0.341844 0.01461154 0.2968217 0.00999999 0.25 0.00999999 0.25 0.01461154 0.2031783 0.02826887 0.1581559 0.02826887 0.1581559 0.05044728 0.116663 0.08029437 0.08029437 0.08029437 0.08029437 0.116663 0.05044728 0.1581559 0.02826887 0.1581559 0.02826887 0.2031783 0.01461148 0.25 0.00999999 0.25 0.00999999 0.2968217 0.01461148 0.341844 0.02826887 0.341844 0.02826887 0.3833369 0.05044728 0.4197056 0.08029437 0.4197056 0.08029437 0.4495527 0.116663 0.4717311 0.1581559 0.4717311 0.1581559 0.4853885 0.2031783 0.49 0.25 0.49 0.25 0.4853885 0.2968217 0.4717311 0.341844 0.4717311 0.341844 0.4495527 0.3833369 0.4197056 0.4197056 0.4197056 0.4197056 0.3833369 0.4495527 0.341844 0.4717311 0.02826893 0.341844 0.00999999 0.25 0.1581559 0.02826887 0.00999999 0.25 0.02826887 0.1581559 0.1581559 0.02826887 0.02826887 0.1581559 0.08029437 0.08029437 0.1581559 0.02826887 0.1581559 0.02826887 0.25 0.00999999 0.341844 0.02826887 0.341844 0.02826887 0.4197056 0.08029437 0.1581559 0.02826887 0.4197056 0.08029437 0.4717311 0.1581559 0.1581559 0.02826887 0.4717311 0.1581559 0.49 0.25 0.341844 0.4717311 0.49 0.25 0.4717311 0.341844 0.341844 0.4717311 0.4717311 0.341844 0.4197056 0.4197056 0.341844 0.4717311 0.341844 0.4717311 0.1581559 0.4717311 0.02826893 0.341844 0.341844 0.4717311 0.02826893 0.341844 0.4717311 0.1581559 0.0625 1 0.03125 1 0.03125 0.5 0.03125 1 0 1 0 0.5 0.7031784 0.4853885 0.75 0.49 0.7968217 0.4853885 0.7968217 0.4853885 0.841844 0.4717311 0.8833369 0.4495527 0.8833369 0.4495527 0.9197056 0.4197056 0.9495527 0.3833369 0.9495527 0.3833369 0.9717311 0.341844 0.9853885 0.2968217 0.9853885 0.2968217 0.99 0.25 0.9853885 0.2031783 0.9853885 0.2031783 0.9717311 0.1581559 0.9495527 0.116663 0.9495527 0.116663 0.9197056 0.08029437 0.8833369 0.05044728 0.8833369 0.05044728 0.841844 0.02826887 0.7968217 0.01461148 0.7968217 0.01461148 0.75 0.00999999 0.7031784 0.01461148 0.7031784 0.01461148 0.658156 0.02826887 0.6166631 0.05044728 0.6166631 0.05044728 0.5802944 0.08029437 0.5504474 0.116663 0.5504474 0.116663 0.5282689 0.1581559 0.5146116 0.2031783 0.5146116 0.2031783 0.51 0.25 0.5146116 0.2968217 0.5146116 0.2968217 0.5282689 0.341844 0.5146116 0.2031783 0.5282689 0.341844 0.5504473 0.3833368 0.5146116 0.2031783 0.5504473 0.3833368 0.5802944 0.4197056 0.7031784 0.4853885 0.5802944 0.4197056 0.6166631 0.4495527 0.7031784 0.4853885 0.6166631 0.4495527 0.658156 0.4717311 0.7031784 0.4853885 0.7031784 0.4853885 0.7968217 0.4853885 0.9853885 0.2968217 0.7968217 0.4853885 0.8833369 0.4495527 0.9853885 0.2968217 0.8833369 0.4495527 0.9495527 0.3833369 0.9853885 0.2968217 0.9853885 0.2968217 0.9853885 0.2031783 0.9495527 0.116663 0.9495527 0.116663 0.8833369 0.05044728 0.9853885 0.2968217 0.8833369 0.05044728 0.7968217 0.01461148 0.9853885 0.2968217 0.7968217 0.01461148 0.7031784 0.01461148 0.5146116 0.2031783 0.7031784 0.01461148 0.6166631 0.05044728 0.5146116 0.2031783 0.6166631 0.05044728 0.5504474 0.116663 0.5146116 0.2031783 0.5146116 0.2031783 0.5504473 0.3833368 0.7031784 0.4853885 0.7031784 0.4853885 0.9853885 0.2968217 0.5146116 0.2031783 1 1 0.96875 0.5 1 0.5 0.96875 1 0.9375 0.5 0.96875 0.5 0.9375 1 0.90625 0.5 0.9375 0.5 0.90625 1 0.8750001 0.5 0.90625 0.5 0.8750001 1 0.84375 0.5 0.8750001 0.5 0.84375 1 0.8125 0.5 0.84375 0.5 0.8125 1 0.78125 0.5 0.8125 0.5 0.78125 1 0.75 0.5 0.78125 0.5 0.75 1 0.71875 0.5 0.75 0.5 0.71875 1 0.6875 0.5 0.71875 0.5 0.6875 1 0.65625 0.5 0.6875 0.5 0.65625 1 0.625 0.5 0.65625 0.5 0.625 1 0.59375 0.5 0.625 0.5 0.59375 1 0.5625 0.5 0.59375 0.5 0.5625 1 0.53125 0.5 0.5625 0.5 0.53125 1 0.5 0.5 0.53125 0.5 0.5 1 0.46875 0.5 0.5 0.5 0.46875 1 0.4375 0.5 0.46875 0.5 0.4375 1 0.40625 0.5 0.4375 0.5 0.40625 1 0.375 0.5 0.40625 0.5 0.375 1 0.34375 0.5 0.375 0.5 0.34375 1 0.3125 0.5 0.34375 0.5 0.3125 1 0.28125 0.5 0.3125 0.5 0.28125 1 0.25 0.5 0.28125 0.5 0.25 1 0.21875 0.5 0.25 0.5 0.21875 1 0.1875 0.5 0.21875 0.5 0.1875 1 0.15625 0.5 0.1875 0.5 0.15625 1 0.125 0.5 0.15625 0.5 0.125 1 0.09375 0.5 0.125 0.5 0.09375 1 0.0625 0.5 0.09375 0.5 0.02826893 0.341844 0.1581559 0.02826887 0.4717311 0.1581559 0.0625 1 0.03125 0.5 0.0625 0.5 0.03125 1 0 0.5 0.03125 0.5 0.9853885 0.2968217 0.7968217 0.01461148 0.5146116 0.2031783 1 1 0.96875 1 0.96875 0.5 0.96875 1 0.9375 1 0.9375 0.5 0.9375 1 0.90625 1 0.90625 0.5 0.90625 1 0.8750001 1 0.8750001 0.5 0.8750001 1 0.84375 1 0.84375 0.5 0.84375 1 0.8125 1 0.8125 0.5 0.8125 1 0.78125 1 0.78125 0.5 0.78125 1 0.75 1 0.75 0.5 0.75 1 0.71875 1 0.71875 0.5 0.71875 1 0.6875 1 0.6875 0.5 0.6875 1 0.65625 1 0.65625 0.5 0.65625 1 0.625 1 0.625 0.5 0.625 1 0.59375 1 0.59375 0.5 0.59375 1 0.5625 1 0.5625 0.5 0.5625 1 0.53125 1 0.53125 0.5 0.53125 1 0.5 1 0.5 0.5 0.5 1 0.46875 1 0.46875 0.5 0.46875 1 0.4375 1 0.4375 0.5 0.4375 1 0.40625 1 0.40625 0.5 0.40625 1 0.375 1 0.375 0.5 0.375 1 0.34375 1 0.34375 0.5 0.34375 1 0.3125 1 0.3125 0.5 0.3125 1 0.28125 1 0.28125 0.5 0.28125 1 0.25 1 0.25 0.5 0.25 1 0.21875 1 0.21875 0.5 0.21875 1 0.1875 1 0.1875 0.5 0.1875 1 0.15625 1 0.15625 0.5 0.15625 1 0.125 1 0.125 0.5 0.125 1 0.09375 1 0.09375 0.5 0.09375 1 0.0625 1 0.0625 0.5 0.341844 0.4717311 0.2968217 0.4853885 0.1581559 0.4717311 0.2968217 0.4853885 0.25 0.49 0.1581559 0.4717311 0.25 0.49 0.2031783 0.4853885 0.1581559 0.4717311 0.1581559 0.4717311 0.116663 0.4495527 0.08029431 0.4197056 0.08029431 0.4197056 0.0504471 0.3833368 0.1581559 0.4717311 0.0504471 0.3833368 0.02826893 0.341844 0.1581559 0.4717311 0.02826893 0.341844 0.01461154 0.2968217 0.00999999 0.25 0.00999999 0.25 0.01461154 0.2031783 0.02826887 0.1581559 0.02826887 0.1581559 0.05044728 0.116663 0.08029437 0.08029437 0.08029437 0.08029437 0.116663 0.05044728 0.1581559 0.02826887 0.1581559 0.02826887 0.2031783 0.01461148 0.25 0.00999999 0.25 0.00999999 0.2968217 0.01461148 0.341844 0.02826887 0.341844 0.02826887 0.3833369 0.05044728 0.4197056 0.08029437 0.4197056 0.08029437 0.4495527 0.116663 0.4717311 0.1581559 0.4717311 0.1581559 0.4853885 0.2031783 0.49 0.25 0.49 0.25 0.4853885 0.2968217 0.4717311 0.341844 0.4717311 0.341844 0.4495527 0.3833369 0.4197056 0.4197056 0.4197056 0.4197056 0.3833369 0.4495527 0.341844 0.4717311 0.02826893 0.341844 0.00999999 0.25 0.1581559 0.02826887 0.00999999 0.25 0.02826887 0.1581559 0.1581559 0.02826887 0.02826887 0.1581559 0.08029437 0.08029437 0.1581559 0.02826887 0.1581559 0.02826887 0.25 0.00999999 0.341844 0.02826887 0.341844 0.02826887 0.4197056 0.08029437 0.1581559 0.02826887 0.4197056 0.08029437 0.4717311 0.1581559 0.1581559 0.02826887 0.4717311 0.1581559 0.49 0.25 0.341844 0.4717311 0.49 0.25 0.4717311 0.341844 0.341844 0.4717311 0.4717311 0.341844 0.4197056 0.4197056 0.341844 0.4717311 0.341844 0.4717311 0.1581559 0.4717311 0.02826893 0.341844 0.341844 0.4717311 0.02826893 0.341844 0.4717311 0.1581559 0.0625 1 0.03125 1 0.03125 0.5 0.03125 1 0 1 0 0.5 0.7031784 0.4853885 0.75 0.49 0.7968217 0.4853885 0.7968217 0.4853885 0.841844 0.4717311 0.8833369 0.4495527 0.8833369 0.4495527 0.9197056 0.4197056 0.9495527 0.3833369 0.9495527 0.3833369 0.9717311 0.341844 0.9853885 0.2968217 0.9853885 0.2968217 0.99 0.25 0.9853885 0.2031783 0.9853885 0.2031783 0.9717311 0.1581559 0.9495527 0.116663 0.9495527 0.116663 0.9197056 0.08029437 0.8833369 0.05044728 0.8833369 0.05044728 0.841844 0.02826887 0.7968217 0.01461148 0.7968217 0.01461148 0.75 0.00999999 0.7031784 0.01461148 0.7031784 0.01461148 0.658156 0.02826887 0.6166631 0.05044728 0.6166631 0.05044728 0.5802944 0.08029437 0.5504474 0.116663 0.5504474 0.116663 0.5282689 0.1581559 0.5146116 0.2031783 0.5146116 0.2031783 0.51 0.25 0.5146116 0.2968217 0.5146116 0.2968217 0.5282689 0.341844 0.5146116 0.2031783 0.5282689 0.341844 0.5504473 0.3833368 0.5146116 0.2031783 0.5504473 0.3833368 0.5802944 0.4197056 0.7031784 0.4853885 0.5802944 0.4197056 0.6166631 0.4495527 0.7031784 0.4853885 0.6166631 0.4495527 0.658156 0.4717311 0.7031784 0.4853885 0.7031784 0.4853885 0.7968217 0.4853885 0.9853885 0.2968217 0.7968217 0.4853885 0.8833369 0.4495527 0.9853885 0.2968217 0.8833369 0.4495527 0.9495527 0.3833369 0.9853885 0.2968217 0.9853885 0.2968217 0.9853885 0.2031783 0.9495527 0.116663 0.9495527 0.116663 0.8833369 0.05044728 0.9853885 0.2968217 0.8833369 0.05044728 0.7968217 0.01461148 0.9853885 0.2968217 0.7968217 0.01461148 0.7031784 0.01461148 0.5146116 0.2031783 0.7031784 0.01461148 0.6166631 0.05044728 0.5146116 0.2031783 0.6166631 0.05044728 0.5504474 0.116663 0.5146116 0.2031783 0.5146116 0.2031783 0.5504473 0.3833368 0.7031784 0.4853885 0.7031784 0.4853885 0.9853885 0.2968217 0.5146116 0.2031783 1 1 0.96875 0.5 1 0.5 0.96875 1 0.9375 0.5 0.96875 0.5 0.9375 1 0.90625 0.5 0.9375 0.5 0.90625 1 0.8750001 0.5 0.90625 0.5 0.8750001 1 0.84375 0.5 0.8750001 0.5 0.84375 1 0.8125 0.5 0.84375 0.5 0.8125 1 0.78125 0.5 0.8125 0.5 0.78125 1 0.75 0.5 0.78125 0.5 0.75 1 0.71875 0.5 0.75 0.5 0.71875 1 0.6875 0.5 0.71875 0.5 0.6875 1 0.65625 0.5 0.6875 0.5 0.65625 1 0.625 0.5 0.65625 0.5 0.625 1 0.59375 0.5 0.625 0.5 0.59375 1 0.5625 0.5 0.59375 0.5 0.5625 1 0.53125 0.5 0.5625 0.5 0.53125 1 0.5 0.5 0.53125 0.5 0.5 1 0.46875 0.5 0.5 0.5 0.46875 1 0.4375 0.5 0.46875 0.5 0.4375 1 0.40625 0.5 0.4375 0.5 0.40625 1 0.375 0.5 0.40625 0.5 0.375 1 0.34375 0.5 0.375 0.5 0.34375 1 0.3125 0.5 0.34375 0.5 0.3125 1 0.28125 0.5 0.3125 0.5 0.28125 1 0.25 0.5 0.28125 0.5 0.25 1 0.21875 0.5 0.25 0.5 0.21875 1 0.1875 0.5 0.21875 0.5 0.1875 1 0.15625 0.5 0.1875 0.5 0.15625 1 0.125 0.5 0.15625 0.5 0.125 1 0.09375 0.5 0.125 0.5 0.09375 1 0.0625 0.5 0.09375 0.5 0.02826893 0.341844 0.1581559 0.02826887 0.4717311 0.1581559 0.0625 1 0.03125 0.5 0.0625 0.5 0.03125 1 0 0.5 0.03125 0.5 0.9853885 0.2968217 0.7968217 0.01461148 0.5146116 0.2031783 1 1 0.96875 1 0.96875 0.5 0.96875 1 0.9375 1 0.9375 0.5 0.9375 1 0.90625 1 0.90625 0.5 0.90625 1 0.8750001 1 0.8750001 0.5 0.8750001 1 0.84375 1 0.84375 0.5 0.84375 1 0.8125 1 0.8125 0.5 0.8125 1 0.78125 1 0.78125 0.5 0.78125 1 0.75 1 0.75 0.5 0.75 1 0.71875 1 0.71875 0.5 0.71875 1 0.6875 1 0.6875 0.5 0.6875 1 0.65625 1 0.65625 0.5 0.65625 1 0.625 1 0.625 0.5 0.625 1 0.59375 1 0.59375 0.5 0.59375 1 0.5625 1 0.5625 0.5 0.5625 1 0.53125 1 0.53125 0.5 0.53125 1 0.5 1 0.5 0.5 0.5 1 0.46875 1 0.46875 0.5 0.46875 1 0.4375 1 0.4375 0.5 0.4375 1 0.40625 1 0.40625 0.5 0.40625 1 0.375 1 0.375 0.5 0.375 1 0.34375 1 0.34375 0.5 0.34375 1 0.3125 1 0.3125 0.5 0.3125 1 0.28125 1 0.28125 0.5 0.28125 1 0.25 1 0.25 0.5 0.25 1 0.21875 1 0.21875 0.5 0.21875 1 0.1875 1 0.1875 0.5 0.1875 1 0.15625 1 0.15625 0.5 0.15625 1 0.125 1 0.125 0.5 0.125 1 0.09375 1 0.09375 0.5 0.09375 1 0.0625 1 0.0625 0.5 0.341844 0.4717311 0.2968217 0.4853885 0.1581559 0.4717311 0.2968217 0.4853885 0.25 0.49 0.1581559 0.4717311 0.25 0.49 0.2031783 0.4853885 0.1581559 0.4717311 0.1581559 0.4717311 0.116663 0.4495527 0.08029431 0.4197056 0.08029431 0.4197056 0.0504471 0.3833368 0.1581559 0.4717311 0.0504471 0.3833368 0.02826893 0.341844 0.1581559 0.4717311 0.02826893 0.341844 0.01461154 0.2968217 0.00999999 0.25 0.00999999 0.25 0.01461154 0.2031783 0.02826887 0.1581559 0.02826887 0.1581559 0.05044728 0.116663 0.08029437 0.08029437 0.08029437 0.08029437 0.116663 0.05044728 0.1581559 0.02826887 0.1581559 0.02826887 0.2031783 0.01461148 0.25 0.00999999 0.25 0.00999999 0.2968217 0.01461148 0.341844 0.02826887 0.341844 0.02826887 0.3833369 0.05044728 0.4197056 0.08029437 0.4197056 0.08029437 0.4495527 0.116663 0.4717311 0.1581559 0.4717311 0.1581559 0.4853885 0.2031783 0.49 0.25 0.49 0.25 0.4853885 0.2968217 0.4717311 0.341844 0.4717311 0.341844 0.4495527 0.3833369 0.4197056 0.4197056 0.4197056 0.4197056 0.3833369 0.4495527 0.341844 0.4717311 0.02826893 0.341844 0.00999999 0.25 0.1581559 0.02826887 0.00999999 0.25 0.02826887 0.1581559 0.1581559 0.02826887 0.02826887 0.1581559 0.08029437 0.08029437 0.1581559 0.02826887 0.1581559 0.02826887 0.25 0.00999999 0.341844 0.02826887 0.341844 0.02826887 0.4197056 0.08029437 0.1581559 0.02826887 0.4197056 0.08029437 0.4717311 0.1581559 0.1581559 0.02826887 0.4717311 0.1581559 0.49 0.25 0.341844 0.4717311 0.49 0.25 0.4717311 0.341844 0.341844 0.4717311 0.4717311 0.341844 0.4197056 0.4197056 0.341844 0.4717311 0.341844 0.4717311 0.1581559 0.4717311 0.02826893 0.341844 0.341844 0.4717311 0.02826893 0.341844 0.4717311 0.1581559 0.0625 1 0.03125 1 0.03125 0.5 0.03125 1 0 1 0 0.5 0.7031784 0.4853885 0.75 0.49 0.7968217 0.4853885 0.7968217 0.4853885 0.841844 0.4717311 0.8833369 0.4495527 0.8833369 0.4495527 0.9197056 0.4197056 0.9495527 0.3833369 0.9495527 0.3833369 0.9717311 0.341844 0.9853885 0.2968217 0.9853885 0.2968217 0.99 0.25 0.9853885 0.2031783 0.9853885 0.2031783 0.9717311 0.1581559 0.9495527 0.116663 0.9495527 0.116663 0.9197056 0.08029437 0.8833369 0.05044728 0.8833369 0.05044728 0.841844 0.02826887 0.7968217 0.01461148 0.7968217 0.01461148 0.75 0.00999999 0.7031784 0.01461148 0.7031784 0.01461148 0.658156 0.02826887 0.6166631 0.05044728 0.6166631 0.05044728 0.5802944 0.08029437 0.5504474 0.116663 0.5504474 0.116663 0.5282689 0.1581559 0.5146116 0.2031783 0.5146116 0.2031783 0.51 0.25 0.5146116 0.2968217 0.5146116 0.2968217 0.5282689 0.341844 0.5146116 0.2031783 0.5282689 0.341844 0.5504473 0.3833368 0.5146116 0.2031783 0.5504473 0.3833368 0.5802944 0.4197056 0.7031784 0.4853885 0.5802944 0.4197056 0.6166631 0.4495527 0.7031784 0.4853885 0.6166631 0.4495527 0.658156 0.4717311 0.7031784 0.4853885 0.7031784 0.4853885 0.7968217 0.4853885 0.9853885 0.2968217 0.7968217 0.4853885 0.8833369 0.4495527 0.9853885 0.2968217 0.8833369 0.4495527 0.9495527 0.3833369 0.9853885 0.2968217 0.9853885 0.2968217 0.9853885 0.2031783 0.9495527 0.116663 0.9495527 0.116663 0.8833369 0.05044728 0.9853885 0.2968217 0.8833369 0.05044728 0.7968217 0.01461148 0.9853885 0.2968217 0.7968217 0.01461148 0.7031784 0.01461148 0.5146116 0.2031783 0.7031784 0.01461148 0.6166631 0.05044728 0.5146116 0.2031783 0.6166631 0.05044728 0.5504474 0.116663 0.5146116 0.2031783 0.5146116 0.2031783 0.5504473 0.3833368 0.7031784 0.4853885 0.7031784 0.4853885 0.9853885 0.2968217 0.5146116 0.2031783</float_array>
          <technique_common>
            <accessor source="#Cylinder_002-mesh-map-0-array" count="1116" stride="2">
              <param name="S" type="float"/>
              <param name="T" type="float"/>
            </accessor>
          </technique_common>
        </source>
        <vertices id="Cylinder_002-mesh-vertices">
          <input semantic="POSITION" source="#Cylinder_002-mesh-positions"/>
        </vertices>
        <triangles material="Material_003-material" count="124">
          <input semantic="VERTEX" source="#Cylinder_002-mesh-vertices" offset="0"/>
          <input semantic="NORMAL" source="#Cylinder_002-mesh-normals" offset="1"/>
          <input semantic="TEXCOORD" source="#Cylinder_002-mesh-map-0" offset="2" set="0"/>
          <p>1 0 0 2 0 1 0 0 2 3 1 3 4 1 4 2 1 5 5 2 6 6 2 7 4 2 8 7 3 9 8 3 10 6 3 11 9 4 12 10 4 13 8 4 14 11 5 15 12 5 16 10 5 17 13 6 18 14 6 19 12 6 20 15 7 21 16 7 22 14 7 23 17 8 24 18 8 25 16 8 26 19 9 27 20 9 28 18 9 29 21 10 30 22 10 31 20 10 32 23 11 33 24 11 34 22 11 35 25 12 36 26 12 37 24 12 38 27 13 39 28 13 40 26 13 41 29 14 42 30 14 43 28 14 44 31 15 45 32 15 46 30 15 47 33 16 48 34 16 49 32 16 50 35 17 51 36 17 52 34 17 53 37 18 54 38 18 55 36 18 56 39 19 57 40 19 58 38 19 59 41 20 60 42 20 61 40 20 62 43 21 63 44 21 64 42 21 65 45 22 66 46 22 67 44 22 68 47 23 69 48 23 70 46 23 71 49 24 72 50 24 73 48 24 74 51 25 75 52 25 76 50 25 77 53 26 78 54 26 79 52 26 80 55 27 81 56 27 82 54 27 83 57 28 84 58 28 85 56 28 86 59 29 87 60 29 88 58 29 89 53 30 90 37 30 91 21 30 92 61 31 93 62 31 94 60 31 95 63 32 96 0 32 97 62 32 98 14 33 99 30 33 100 46 33 101 1 0 102 3 0 103 2 0 104 3 34 105 5 34 106 4 34 107 5 2 108 7 2 109 6 2 110 7 35 111 9 35 112 8 35 113 9 36 114 11 36 115 10 36 116 11 37 117 13 37 118 12 37 119 13 38 120 15 38 121 14 38 122 15 39 123 17 39 124 16 39 125 17 40 126 19 40 127 18 40 128 19 41 129 21 41 130 20 41 131 21 42 132 23 42 133 22 42 134 23 43 135 25 43 136 24 43 137 25 44 138 27 44 139 26 44 140 27 13 141 29 13 142 28 13 143 29 45 144 31 45 145 30 45 146 31 15 147 33 15 148 32 15 149 33 16 150 35 16 151 34 16 152 35 46 153 37 46 154 36 46 155 37 18 156 39 18 157 38 18 158 39 47 159 41 47 160 40 47 161 41 20 162 43 20 163 42 20 164 43 21 165 45 21 166 44 21 167 45 48 168 47 48 169 46 48 170 47 49 171 49 49 172 48 49 173 49 50 174 51 50 175 50 50 176 51 51 177 53 51 178 52 51 179 53 52 180 55 52 181 54 52 182 55 27 183 57 27 184 56 27 185 57 28 186 59 28 187 58 28 188 59 29 189 61 29 190 60 29 191 5 30 192 3 30 193 61 30 194 3 30 195 1 30 196 61 30 197 1 30 198 63 30 199 61 30 200 61 30 201 59 30 202 57 30 203 57 30 204 55 30 205 61 30 206 55 30 207 53 30 208 61 30 209 53 30 210 51 30 211 49 30 212 49 30 213 47 30 214 45 30 215 45 30 216 43 30 217 41 30 218 41 30 219 39 30 220 37 30 221 37 30 222 35 30 223 33 30 224 33 30 225 31 30 226 29 30 227 29 30 228 27 30 229 25 30 230 25 30 231 23 30 232 21 30 233 21 30 234 19 30 235 17 30 236 17 30 237 15 30 238 13 30 239 13 30 240 11 30 241 9 30 242 9 30 243 7 30 244 5 30 245 53 30 246 49 30 247 37 30 248 49 30 249 45 30 250 37 30 251 45 53 252 41 53 253 37 53 254 37 30 255 33 30 256 29 30 257 29 30 258 25 30 259 37 30 260 25 30 261 21 30 262 37 30 263 21 30 264 17 30 265 5 30 266 17 30 267 13 30 268 5 30 269 13 30 270 9 30 271 5 30 272 5 30 273 61 30 274 53 30 275 5 30 276 53 30 277 21 30 278 61 54 279 63 54 280 62 54 281 63 32 282 1 32 283 0 32 284 62 55 285 0 55 286 2 55 287 2 55 288 4 55 289 6 55 290 6 55 291 8 55 292 10 55 293 10 56 294 12 56 295 14 56 296 14 55 297 16 55 298 18 55 299 18 57 300 20 57 301 22 57 302 22 55 303 24 55 304 26 55 305 26 55 306 28 55 307 30 55 308 30 55 309 32 55 310 34 55 311 34 55 312 36 55 313 38 55 314 38 55 315 40 55 316 42 55 317 42 58 318 44 58 319 46 58 320 46 55 321 48 55 322 50 55 323 50 55 324 52 55 325 46 55 326 52 55 327 54 55 328 46 55 329 54 55 330 56 55 331 62 55 332 56 55 333 58 55 334 62 55 335 58 55 336 60 55 337 62 55 338 62 55 339 2 55 340 14 55 341 2 55 342 6 55 343 14 55 344 6 55 345 10 55 346 14 55 347 14 59 348 18 59 349 22 59 350 22 55 351 26 55 352 14 55 353 26 55 354 30 55 355 14 55 356 30 55 357 34 55 358 46 55 359 34 55 360 38 55 361 46 55 362 38 55 363 42 55 364 46 55 365 46 60 366 54 60 367 62 60 368 62 61 369 14 61 370 46 61 371</p>
        </triangles>
        <triangles material="Material_004-material" count="124">
          <input semantic="VERTEX" source="#Cylinder_002-mesh-vertices" offset="0"/>
          <input semantic="NORMAL" source="#Cylinder_002-mesh-normals" offset="1"/>
          <input semantic="TEXCOORD" source="#Cylinder_002-mesh-map-0" offset="2" set="0"/>
          <p>65 62 372 66 62 373 64 62 374 67 63 375 68 63 376 66 63 377 69 64 378 70 64 379 68 64 380 71 65 381 72 65 382 70 65 383 73 66 384 74 66 385 72 66 386 75 67 387 76 67 388 74 67 389 77 68 390 78 68 391 76 68 392 79 69 393 80 69 394 78 69 395 81 70 396 82 70 397 80 70 398 83 71 399 84 71 400 82 71 401 85 72 402 86 72 403 84 72 404 87 73 405 88 73 406 86 73 407 89 74 408 90 74 409 88 74 410 91 75 411 92 75 412 90 75 413 93 76 414 94 76 415 92 76 416 95 77 417 96 77 418 94 77 419 97 78 420 98 78 421 96 78 422 99 79 423 100 79 424 98 79 425 101 80 426 102 80 427 100 80 428 103 81 429 104 81 430 102 81 431 105 82 432 106 82 433 104 82 434 107 83 435 108 83 436 106 83 437 109 84 438 110 84 439 108 84 440 111 85 441 112 85 442 110 85 443 113 86 444 114 86 445 112 86 446 115 87 447 116 87 448 114 87 449 117 88 450 118 88 451 116 88 452 119 89 453 120 89 454 118 89 455 121 90 456 122 90 457 120 90 458 123 91 459 124 91 460 122 91 461 117 30 462 101 30 463 85 30 464 125 92 465 126 92 466 124 92 467 127 93 468 64 93 469 126 93 470 78 94 471 94 94 472 110 94 473 65 95 474 67 95 475 66 95 476 67 63 477 69 63 478 68 63 479 69 96 480 71 96 481 70 96 482 71 65 483 73 65 484 72 65 485 73 66 486 75 66 487 74 66 488 75 97 489 77 97 490 76 97 491 77 68 492 79 68 493 78 68 494 79 98 495 81 98 496 80 98 497 81 99 498 83 99 499 82 99 500 83 71 501 85 71 502 84 71 503 85 100 504 87 100 505 86 100 506 87 73 507 89 73 508 88 73 509 89 74 510 91 74 511 90 74 512 91 101 513 93 101 514 92 101 515 93 76 516 95 76 517 94 76 518 95 102 519 97 102 520 96 102 521 97 103 522 99 103 523 98 103 524 99 79 525 101 79 526 100 79 527 101 104 528 103 104 529 102 104 530 103 81 531 105 81 532 104 81 533 105 82 534 107 82 535 106 82 536 107 105 537 109 105 538 108 105 539 109 84 540 111 84 541 110 84 542 111 106 543 113 106 544 112 106 545 113 107 546 115 107 547 114 107 548 115 87 549 117 87 550 116 87 551 117 108 552 119 108 553 118 108 554 119 89 555 121 89 556 120 89 557 121 90 558 123 90 559 122 90 560 123 109 561 125 109 562 124 109 563 69 30 564 67 30 565 125 30 566 67 30 567 65 30 568 125 30 569 65 30 570 127 30 571 125 30 572 125 30 573 123 30 574 121 30 575 121 30 576 119 30 577 125 30 578 119 30 579 117 30 580 125 30 581 117 30 582 115 30 583 113 30 584 113 30 585 111 30 586 109 30 587 109 30 588 107 30 589 105 30 590 105 30 591 103 30 592 101 30 593 101 30 594 99 30 595 97 30 596 97 30 597 95 30 598 93 30 599 93 30 600 91 30 601 89 30 602 89 30 603 87 30 604 85 30 605 85 30 606 83 30 607 81 30 608 81 30 609 79 30 610 77 30 611 77 30 612 75 30 613 73 30 614 73 30 615 71 30 616 69 30 617 117 30 618 113 30 619 101 30 620 113 30 621 109 30 622 101 30 623 109 110 624 105 110 625 101 110 626 101 30 627 97 30 628 93 30 629 93 30 630 89 30 631 101 30 632 89 30 633 85 30 634 101 30 635 85 30 636 81 30 637 69 30 638 81 30 639 77 30 640 69 30 641 77 30 642 73 30 643 69 30 644 69 30 645 125 30 646 117 30 647 69 30 648 117 30 649 85 30 650 125 92 651 127 92 652 126 92 653 127 111 654 65 111 655 64 111 656 126 55 657 64 55 658 66 55 659 66 55 660 68 55 661 70 55 662 70 55 663 72 55 664 74 55 665 74 112 666 76 112 667 78 112 668 78 55 669 80 55 670 82 55 671 82 113 672 84 113 673 86 113 674 86 55 675 88 55 676 90 55 677 90 55 678 92 55 679 94 55 680 94 55 681 96 55 682 98 55 683 98 55 684 100 55 685 102 55 686 102 55 687 104 55 688 106 55 689 106 114 690 108 114 691 110 114 692 110 55 693 112 55 694 114 55 695 114 55 696 116 55 697 110 55 698 116 55 699 118 55 700 110 55 701 118 55 702 120 55 703 126 55 704 120 55 705 122 55 706 126 55 707 122 55 708 124 55 709 126 55 710 126 55 711 66 55 712 78 55 713 66 55 714 70 55 715 78 55 716 70 55 717 74 55 718 78 55 719 78 115 720 82 115 721 86 115 722 86 55 723 90 55 724 78 55 725 90 55 726 94 55 727 78 55 728 94 55 729 98 55 730 110 55 731 98 55 732 102 55 733 110 55 734 102 55 735 106 55 736 110 55 737 110 116 738 118 116 739 126 116 740 126 117 741 78 117 742 110 117 743</p>
        </triangles>
        <triangles material="Material_002-material" count="124">
          <input semantic="VERTEX" source="#Cylinder_002-mesh-vertices" offset="0"/>
          <input semantic="NORMAL" source="#Cylinder_002-mesh-normals" offset="1"/>
          <input semantic="TEXCOORD" source="#Cylinder_002-mesh-map-0" offset="2" set="0"/>
          <p>129 118 744 130 118 745 128 118 746 131 119 747 132 119 748 130 119 749 133 120 750 134 120 751 132 120 752 135 121 753 136 121 754 134 121 755 137 122 756 138 122 757 136 122 758 139 123 759 140 123 760 138 123 761 141 124 762 142 124 763 140 124 764 143 125 765 144 125 766 142 125 767 145 126 768 146 126 769 144 126 770 147 127 771 148 127 772 146 127 773 149 128 774 150 128 775 148 128 776 151 129 777 152 129 778 150 129 779 153 130 780 154 130 781 152 130 782 155 131 783 156 131 784 154 131 785 157 132 786 158 132 787 156 132 788 159 133 789 160 133 790 158 133 791 161 134 792 162 134 793 160 134 794 163 135 795 164 135 796 162 135 797 165 136 798 166 136 799 164 136 800 167 137 801 168 137 802 166 137 803 169 138 804 170 138 805 168 138 806 171 139 807 172 139 808 170 139 809 173 140 810 174 140 811 172 140 812 175 141 813 176 141 814 174 141 815 177 142 816 178 142 817 176 142 818 179 143 819 180 143 820 178 143 821 181 144 822 182 144 823 180 144 824 183 145 825 184 145 826 182 145 827 185 146 828 186 146 829 184 146 830 187 147 831 188 147 832 186 147 833 181 148 834 165 148 835 149 148 836 189 149 837 190 149 838 188 149 839 191 150 840 128 150 841 190 150 842 142 151 843 158 151 844 174 151 845 129 152 846 131 152 847 130 152 848 131 153 849 133 153 850 132 153 851 133 154 852 135 154 853 134 154 854 135 155 855 137 155 856 136 155 857 137 156 858 139 156 859 138 156 860 139 157 861 141 157 862 140 157 863 141 158 864 143 158 865 142 158 866 143 159 867 145 159 868 144 159 869 145 160 870 147 160 871 146 160 872 147 161 873 149 161 874 148 161 875 149 162 876 151 162 877 150 162 878 151 163 879 153 163 880 152 163 881 153 164 882 155 164 883 154 164 884 155 165 885 157 165 886 156 165 887 157 166 888 159 166 889 158 166 890 159 167 891 161 167 892 160 167 893 161 168 894 163 168 895 162 168 896 163 169 897 165 169 898 164 169 899 165 170 900 167 170 901 166 170 902 167 171 903 169 171 904 168 171 905 169 172 906 171 172 907 170 172 908 171 173 909 173 173 910 172 173 911 173 174 912 175 174 913 174 174 914 175 175 915 177 175 916 176 175 917 177 176 918 179 176 919 178 176 920 179 177 921 181 177 922 180 177 923 181 178 924 183 178 925 182 178 926 183 179 927 185 179 928 184 179 929 185 180 930 187 180 931 186 180 932 187 181 933 189 181 934 188 181 935 133 148 936 131 148 937 189 148 938 131 148 939 129 148 940 189 148 941 129 148 942 191 148 943 189 148 944 189 148 945 187 148 946 185 148 947 185 148 948 183 148 949 189 148 950 183 148 951 181 148 952 189 148 953 181 148 954 179 148 955 177 148 956 177 148 957 175 148 958 173 148 959 173 148 960 171 148 961 169 148 962 169 148 963 167 148 964 165 148 965 165 148 966 163 148 967 161 148 968 161 148 969 159 148 970 157 148 971 157 148 972 155 148 973 153 148 974 153 148 975 151 148 976 149 148 977 149 148 978 147 148 979 145 148 980 145 148 981 143 148 982 141 148 983 141 148 984 139 148 985 137 148 986 137 148 987 135 148 988 133 148 989 181 148 990 177 148 991 165 148 992 177 148 993 173 148 994 165 148 995 173 148 996 169 148 997 165 148 998 165 148 999 161 148 1000 157 148 1001 157 148 1002 153 148 1003 165 148 1004 153 148 1005 149 148 1006 165 148 1007 149 148 1008 145 148 1009 133 148 1010 145 148 1011 141 148 1012 133 148 1013 141 148 1014 137 148 1015 133 148 1016 133 148 1017 189 148 1018 181 148 1019 133 148 1020 181 148 1021 149 148 1022 189 182 1023 191 182 1024 190 182 1025 191 183 1026 129 183 1027 128 183 1028 190 184 1029 128 184 1030 130 184 1031 130 184 1032 132 184 1033 134 184 1034 134 184 1035 136 184 1036 138 184 1037 138 184 1038 140 184 1039 142 184 1040 142 184 1041 144 184 1042 146 184 1043 146 184 1044 148 184 1045 150 184 1046 150 184 1047 152 184 1048 154 184 1049 154 184 1050 156 184 1051 158 184 1052 158 184 1053 160 184 1054 162 184 1055 162 184 1056 164 184 1057 166 184 1058 166 184 1059 168 184 1060 170 184 1061 170 184 1062 172 184 1063 174 184 1064 174 184 1065 176 184 1066 178 184 1067 178 184 1068 180 184 1069 174 184 1070 180 184 1071 182 184 1072 174 184 1073 182 184 1074 184 184 1075 190 184 1076 184 184 1077 186 184 1078 190 184 1079 186 184 1080 188 184 1081 190 184 1082 190 184 1083 130 184 1084 142 184 1085 130 184 1086 134 184 1087 142 184 1088 134 184 1089 138 184 1090 142 184 1091 142 184 1092 146 184 1093 150 184 1094 150 184 1095 154 184 1096 142 184 1097 154 184 1098 158 184 1099 142 184 1100 158 184 1101 162 184 1102 174 184 1103 162 184 1104 166 184 1105 174 184 1106 166 185 1107 170 185 1108 174 185 1109 174 186 1110 182 186 1111 190 186 1112 190 187 1113 142 187 1114 174 187 1115</p>
        </triangles>
      </mesh>
    </geometry>
  </library_geometries>
  <library_visual_scenes>
    <visual_scene id="Scene" name="Scene">
      <node id="Light_002" name="Light.002" type="NODE">
        <matrix sid="transform">-0.2908646 -0.7711008 0.5663932 4.076245 0.9551712 -0.1998834 0.2183912 1.005454 -0.055189 0.6045247 0.7946723 5.903862 0 0 0 1</matrix>
        <instance_light url="#Light_002-light"/>
      </node>
      <node id="Camera_002" name="Camera.002" type="NODE">
        <matrix sid="transform">0.6859207 -0.3240135 0.6515582 7.358891 0.7276763 0.3054209 -0.6141704 -6.925791 -4.01133e-9 0.8953956 0.4452714 4.958309 0 0 0 1</matrix>
        <instance_camera url="#Camera_002-camera"/>
      </node>
      <node id="Cylinder_002" name="Cylinder.002" type="NODE">
        <matrix sid="transform">0.02 0 0 0.75 0 0.02 0 0 0 0 0.5 0.5 0 0 0 1</matrix>
        <instance_geometry url="#Cylinder_002-mesh" name="Cylinder.002">
          <bind_material>
            <technique_common>
              <instance_material symbol="Material_003-material" target="#Material_003-material">
                <bind_vertex_input semantic="orange_gate" input_semantic="TEXCOORD" input_set="0"/>
              </instance_material>
              <instance_material symbol="Material_004-material" target="#Material_004-material">
                <bind_vertex_input semantic="orange_gate" input_semantic="TEXCOORD" input_set="0"/>
              </instance_material>
              <instance_material symbol="Material_002-material" target="#Material_002-material">
                <bind_vertex_input semantic="orange_gate" input_semantic="TEXCOORD" input_set="0"/>
              </instance_material>
            </technique_common>
          </bind_material>
        </instance_geometry>
      </node>
      <node id="Camera_001" name="Camera.001" type="NODE">
        <matrix sid="transform">0.6859207 -0.3240135 0.6515582 7.358891 0.7276763 0.3054209 -0.6141704 -6.925791 -4.01133e-9 0.8953956 0.4452714 4.958309 0 0 0 1</matrix>
        <instance_camera url="#Camera_001-camera"/>
      </node>
      <node id="Light_001" name="Light.001" type="NODE">
        <matrix sid="transform">-0.2908646 -0.7711008 0.5663932 4.076245 0.9551712 -0.1998834 0.2183911 1.005454 -0.05518897 0.6045246 0.7946723 5.903862 0 0 0 1</matrix>
        <instance_light url="#Light_001-light"/>
      </node>
      <node id="Camera" name="Camera" type="NODE">
        <matrix sid="transform">0.6859207 -0.3240135 0.6515582 7.358891 0.7276763 0.3054208 -0.6141704 -6.925791 0 0.8953956 0.4452714 4.958309 0 0 0 1</matrix>
        <instance_camera url="#Camera-camera"/>
      </node>
      <node id="Light" name="Light" type="NODE">
        <matrix sid="transform">-0.2908646 -0.7711008 0.5663932 4.076245 0.9551712 -0.1998834 0.2183912 1.005454 -0.05518906 0.6045247 0.7946723 5.903862 0 0 0 1</matrix>
        <instance_light url="#Light-light"/>
      </node>
    </visual_scene>
  </library_visual_scenes>
  <scene>
    <instance_visual_scene url="#Scene"/>
  </scene>
</COLLADA>